# 3ds Max Wavefront OBJ Exporter v0.97b - (c)2007 guruware
# File Created: 20.02.2015 14:28:00

mtllib GunBarrel.mtl

#
# object Cylinder001
#

v  69.3676 12.5171 13.2027
v  61.5880 12.5176 13.2022
v  61.5930 12.2369 13.2017
v  69.3676 8.5127 13.1879
v  61.5571 8.5127 13.1879
v  69.3676 15.3591 10.3816
v  58.0684 15.3591 10.3816
v  58.0684 13.8851 11.8448
v  69.3676 12.5529 3.5352
v  60.9779 12.5529 3.5352
v  58.0684 13.6647 4.6553
v  58.0684 15.3740 6.3772
v  69.3676 15.3740 6.3772
v  69.3676 8.5485 3.5204
v  61.0164 8.5485 3.5204
v  69.3676 5.7065 6.3414
v  58.0684 5.7065 6.3414
v  58.0684 7.4052 4.6553
v  58.0684 7.1796 11.8448
v  58.0684 5.6917 10.3458
v  69.3676 5.6917 10.3458
v  65.8151 7.8402 7.2345
v  65.8151 9.4258 5.6607
v  65.8151 11.6598 5.6689
v  65.8151 9.4058 11.0541
v  65.8151 13.2337 7.2545
v  65.8151 13.2254 9.4886
v  65.8151 11.6399 11.0624
v  65.8151 7.8319 9.4686
v  71.2323 9.1232 11.7293
v  71.2323 11.9174 11.7397
v  71.2323 7.1547 9.7462
v  71.2323 7.1650 6.9519
v  71.2323 9.1482 4.9834
v  71.2323 11.9424 4.9938
v  71.2323 13.9109 6.9769
v  71.2323 13.9006 9.7712
v  17.2337 -10.0758 -0.1951
v  17.2337 -2.7057 -0.1502
v  72.1966 -2.7057 -0.1501
v  72.1966 -10.0758 -0.1950
v  17.2337 2.1523 4.7674
v  43.5920 2.1523 4.7675
v  57.9982 2.1523 4.7675
v  72.1966 2.4290 12.4632
v  72.1966 2.4740 5.0931
v  61.0624 2.4740 5.0931
v  60.6345 2.4290 12.4631
v  17.2337 -2.8141 17.6427
v  17.2337 -10.1842 17.5978
v  72.1966 -10.1842 17.5979
v  72.1966 -2.8141 17.6428
v  17.2337 -15.3638 12.3547
v  72.1966 -15.3639 12.3547
v  17.2337 -15.3189 4.9846
v  72.1966 -15.3189 4.9847
v  17.2337 2.1523 12.7365
v  77.1472 -4.5856 4.3113
v  77.1472 -2.0100 6.9185
v  77.1472 -2.0323 10.5833
v  77.1472 -10.8576 6.8646
v  77.1472 -4.6395 13.1589
v  77.1472 -8.3043 13.1365
v  77.1472 -10.8799 10.5293
v  77.1472 -8.2504 4.2890
v  74.8328 -3.3323 1.3370
v  74.8328 -9.4673 1.2997
v  74.8328 0.9793 5.7016
v  74.8328 0.9419 11.8365
v  74.8328 -3.4226 16.1482
v  74.8328 -9.5576 16.1108
v  74.8328 -13.8692 11.7463
v  74.8328 -13.8318 5.6113
v  66.1666 -3.9590 2.8242
v  66.1666 -8.8588 2.7943
v  66.1666 -0.5154 6.3100
v  66.1666 -0.5452 11.2099
v  66.1666 -4.0311 14.6535
v  66.1666 -8.9309 14.6236
v  66.1666 -12.3745 11.1378
v  66.1666 -12.3447 6.2379
v  57.9982 2.1523 12.7365
v  28.7572 10.2724 19.1521
v  -35.3449 11.9418 19.1520
v  -35.3449 3.5092 19.1520
v  39.2493 3.5092 19.1521
v  43.4860 2.1523 0.0000
v  43.5529 2.1523 3.0075
v  -14.6661 2.1523 3.3556
v  -29.7192 2.1523 3.4456
v  -36.7018 2.1523 3.4873
v  -36.7018 2.1523 -0.0001
v  57.9982 19.7514 0.0000
v  57.9982 19.7514 2.9211
v  57.9982 2.1523 2.9211
v  57.9982 2.1523 0.0000
v  43.4860 19.7514 0.0000
v  43.5529 19.7514 3.0075
v  -36.7018 19.7514 3.4873
v  -36.7018 11.4571 -0.0001
v  -36.7018 19.7514 -0.0001
v  57.9982 2.1523 16.7611
v  57.9982 19.7514 16.7611
v  43.8585 19.7514 16.7611
v  43.8585 2.1523 16.7611
v  -36.7018 2.1523 16.7610
v  -36.7018 2.1523 13.5788
v  -30.6254 2.1523 13.5788
v  -14.9592 2.1523 13.5789
v  43.7878 2.1523 13.5790
v  57.9982 2.1523 13.5790
v  57.9982 19.7514 13.5790
v  43.7878 19.7514 13.5790
v  -36.7018 13.3345 16.7610
v  -36.7018 19.7514 16.7610
v  -36.7018 19.7514 13.5788
v  58.0684 18.0173 4.6553
v  58.0684 18.0173 11.8448
v  -41.4838 4.8660 10.8651
v  -41.4838 17.0378 10.8651
v  -41.4838 17.0378 6.2010
v  -41.4838 4.8660 6.2010
v  -34.7319 23.7572 11.6089
v  41.7736 23.7572 11.6090
v  41.6265 23.7572 4.9889
v  -34.7318 23.7572 5.4455
v  42.1594 16.7144 11.9864
v  -35.1092 16.7144 11.9862
v  41.9955 16.7144 4.6094
v  -35.1092 16.7144 5.0704
v  61.5930 2.5296 13.2017
v  61.5930 19.3741 13.2017
v  61.5930 19.3741 3.2984
v  61.5930 2.5296 3.2984
v  58.0684 3.8865 4.6553
v  58.0684 3.8865 11.8448
v  22.1010 12.0991 -0.0000
v  21.8079 10.7389 -2.3910
v  37.3516 3.5092 -2.3910
v  -35.3449 3.5092 -2.3911
v  -35.3449 10.1150 -2.3911
v  29.1727 11.6189 16.7611
v  -39.0928 3.5092 12.2220
v  -39.0928 3.5092 4.8441
v  -39.0928 18.3946 12.2220
v  -39.0928 18.3946 4.8441
v  -20.6762 -37.3066 6.3309
v  -11.2640 -37.3066 6.2746
v  -11.3902 -37.3066 10.6777
v  -21.0650 -37.3066 10.6777
v  -16.0627 -2.1864 4.7208
v  -28.4776 -2.1864 4.7950
v  -16.2777 -2.1864 12.2220
v  -29.1418 -2.1863 12.2220
v  -12.1934 -7.4807 4.3440
v  -25.3364 -7.4807 4.4226
v  -12.4299 -7.4807 12.5965
v  -26.0674 -7.4807 12.5965
v  -8.9036 -12.7750 3.9672
v  -22.7747 -12.7750 4.0502
v  -5.7347 -4.7852 5.5727
v  -5.9105 -4.7852 11.7075
v  -3.8233 -8.1665 11.9467
v  -3.6337 -8.1665 5.3321
v  -23.5725 -12.7750 12.9709
v  -9.1617 -12.7750 12.9710
v  -10.0838 -18.5472 5.1209
v  -21.7255 -18.5472 5.1905
v  -10.2759 -18.5472 11.8243
v  -22.3188 -18.5472 11.8243
v  -8.1193 -5.6984 12.0087
v  -8.1368 -5.7877 5.1157
v  -8.6240 -3.4772 11.5437
v  -7.1223 -2.8563 11.3390
v  -6.9656 -2.8563 5.8727
v  -8.6392 -3.5548 5.5544
v  43.7691 2.1523 12.7365
# 177 vertices

vn -0.0000 0.3793 0.9253
vn -0.0000 0.5095 0.8605
vn -0.0000 -0.0028 1.0000
vn -0.0000 -0.3861 0.9225
vn -0.0000 -0.5103 0.8600
vn -0.0000 0.9225 0.3861
vn -0.0000 0.7045 0.7097
vn 0.0000 0.3861 -0.9225
vn 0.0000 0.5103 -0.8600
vn 0.0000 0.7097 -0.7045
vn 0.0000 0.9253 -0.3793
vn 0.0000 -0.3793 -0.9253
vn 0.0000 -0.4918 -0.8707
vn 0.0000 -0.9225 -0.3861
vn 0.0000 -0.7045 -0.7097
vn -0.0000 -0.7097 0.7045
vn -0.0000 -0.9253 0.3793
vn 1.0000 0.0000 0.0000
vn 0.1248 -0.0037 0.9922
vn 0.1248 -0.7042 0.6990
vn 0.1248 -0.9922 -0.0037
vn 0.1248 -0.6990 -0.7042
vn 0.1248 0.0037 -0.9922
vn 0.1248 0.7042 -0.6990
vn 0.1248 0.9922 0.0037
vn 0.1248 0.6990 0.7042
vn 0.0200 0.0037 -0.9998
vn 0.0200 0.7096 -0.7043
vn 0.0200 0.9998 0.0037
vn 0.0200 0.7043 0.7096
vn 0.0200 -0.0037 0.9998
vn 0.0200 -0.7096 0.7043
vn 0.0200 -0.9998 -0.0037
vn 0.0200 -0.7043 -0.7096
vn 0.0000 -0.3770 -0.9262
vn 0.0000 0.3883 -0.9215
vn 0.0000 0.7114 -0.7028
vn 0.0000 0.9215 0.3883
vn 0.0000 0.9262 -0.3770
vn 0.0000 0.8847 -0.4662
vn 0.0000 0.8378 0.5460
vn -0.0000 0.3770 0.9262
vn -0.0000 -0.3883 0.9215
vn -0.0000 -0.9262 0.3770
vn -0.0000 -0.9215 -0.3883
vn -1.0000 -0.0000 -0.0000
vn 0.0904 0.0061 -0.9959
vn 0.0904 0.7085 -0.6999
vn 0.0904 0.9959 0.0061
vn 0.0904 0.6999 0.7085
vn 0.0904 -0.0061 0.9959
vn 0.0904 -0.7085 0.6999
vn 0.0904 -0.9959 -0.0061
vn 0.0904 -0.6999 -0.7085
vn 0.0276 -0.0061 0.9996
vn 0.0276 -0.7111 0.7025
vn 0.0276 -0.9996 -0.0061
vn 0.0276 -0.7025 -0.7111
vn 0.0276 0.0061 -0.9996
vn 0.0276 0.7111 -0.7025
vn 0.0276 0.9996 0.0061
vn 0.0276 0.7025 0.7111
vn 0.0218 0.0061 -0.9997
vn 0.0218 0.7112 -0.7026
vn 0.0218 0.9997 0.0061
vn 0.0218 0.7026 0.7112
vn 0.0218 -0.0061 0.9997
vn 0.0218 -0.7112 0.7026
vn 0.0218 -0.9997 -0.0061
vn 0.0218 -0.7026 -0.7112
vn 0.0000 0.7028 0.7114
vn -0.0000 0.0000 1.0000
vn -0.0000 -1.0000 0.0000
vn -0.0000 -1.0000 -0.0000
vn 0.0000 1.0000 0.0000
vn 0.0000 1.0000 -0.0000
vn -1.0000 0.0000 -0.0000
vn 0.0000 0.0000 -1.0000
vn -0.0000 -0.0000 1.0000
vn -0.0000 1.0000 0.0000
vn -1.0000 -0.0000 0.0000
vn 1.0000 0.0000 -0.0000
vn 1.0000 -0.0000 -0.0000
vn -1.0000 0.0000 0.0000
vn 0.0000 0.4644 -0.8856
vn -0.2924 0.9554 0.0405
vn 0.0009 0.4644 0.8856
vn 0.2927 0.9562 0.0000
vn -0.0000 0.0535 0.9986
vn 0.9405 0.3140 -0.1302
vn -0.0010 0.0535 -0.9986
vn -0.9486 0.3166 -0.0000
vn 0.0168 -0.0000 0.9999
vn 0.0168 -0.0000 -0.9999
vn 0.0168 0.9999 -0.0000
vn 0.0617 -0.0002 -0.9981
vn 0.0617 0.9981 -0.0000
vn 0.0617 0.0000 0.9981
vn 0.0617 -0.9981 -0.0000
vn 0.0000 -0.0000 -1.0000
vn -0.2722 -0.0000 -0.9623
vn -0.0015 0.8697 -0.4936
vn 0.0632 0.8460 -0.5295
vn -0.0000 -0.8697 -0.4935
vn -0.0000 -0.8697 0.4935
vn 0.0854 0.8258 0.5575
vn 0.0036 0.8696 0.4937
vn -0.2722 0.0000 0.9622
vn -0.0907 -0.9959 0.0000
vn -0.0907 -0.0000 0.9959
vn -0.0907 0.9959 -0.0000
vn -0.0907 0.0000 -0.9959
vn -0.0009 -0.2985 -0.9544
vn 0.4550 -0.8868 0.0812
vn -0.0000 -0.2985 0.9544
vn -0.4412 -0.8631 -0.2458
vn -0.0010 0.0666 -0.9978
vn 0.2149 0.9759 0.0384
vn -0.0000 0.0706 0.9975
vn -0.2609 -0.9543 -0.1454
vn -0.0010 0.0673 -0.9977
vn 0.2506 0.9671 0.0448
vn -0.3137 -0.9333 -0.1748
vn -0.0009 -0.1948 -0.9808
vn 0.6244 -0.7731 0.1115
vn -0.0000 -0.1948 0.9808
vn -0.5919 -0.7355 -0.3298
vn -0.0010 -0.0610 -0.9981
vn 0.9217 -0.3512 0.1646
vn -0.0000 -0.0610 0.9981
vn -0.8285 -0.3168 -0.4617
vn -0.0665 0.9977 -0.0119
vn 0.0136 0.1225 0.9924
vn 0.1380 -0.9901 0.0246
vn 0.0202 0.1487 -0.9887
vn 0.2453 0.9685 0.0438
vn 0.0155 0.2136 -0.9768
vn -0.5788 -0.8152 0.0197
vn 0.0071 0.2145 0.9767
vn 0.0168 -0.9999 -0.0000
vn 0.0168 -0.9999 0.0000
vn 0.0617 0.0000 -0.9981
vn 0.0617 -0.0000 -0.9981
# 143 vertex normals

vt 0.9141 0.0000 0.0000
vt 0.9141 0.0836 0.0000
vt 0.9129 0.0836 0.0000
vt 0.8967 0.0000 0.0000
vt 0.8967 0.0840 0.0000
vt 0.9315 0.0000 0.0000
vt 0.9315 0.1215 0.0000
vt 0.9224 0.1215 0.0000
vt 0.8271 0.0000 0.0000
vt 0.8271 0.0902 0.0000
vt 0.8203 0.1215 0.0000
vt 0.8097 0.1215 0.0000
vt 0.8097 0.0000 0.0000
vt 0.8445 0.0000 0.0000
vt 0.8445 0.0898 0.0000
vt 0.8619 0.0000 0.0000
vt 0.8619 0.1215 0.0000
vt 0.8515 0.1215 0.0000
vt 0.8885 0.1215 0.0000
vt 0.8793 0.1215 0.0000
vt 0.8793 0.0000 0.0000
vt 0.2763 0.8565 0.0000
vt 0.2611 0.8197 0.0000
vt 0.2243 0.8044 0.0000
vt 0.2243 0.9085 0.0000
vt 0.1875 0.8197 0.0000
vt 0.1723 0.8565 0.0000
vt 0.1875 0.8933 0.0000
vt 0.2611 0.8933 0.0000
vt 0.7923 0.0000 0.0000
vt 0.7923 0.1215 0.0000
vt 0.2918 0.0000 0.0000
vt 0.3404 0.0000 0.0000
vt 0.3404 0.3891 0.0000
vt 0.2918 0.3891 0.0000
vt 0.3861 0.0000 0.0000
vt 0.3861 0.1866 0.0000
vt 0.3861 0.2886 0.0000
vt 0.0486 0.3891 0.0000
vt 0.0000 0.3891 0.0000
vt 0.0000 0.3103 0.0000
vt 0.0486 0.3072 0.0000
vt 0.0973 0.0000 0.0000
vt 0.1459 0.0000 0.0000
vt 0.1459 0.3891 0.0000
vt 0.0973 0.3891 0.0000
vt 0.1945 0.0000 0.0000
vt 0.1945 0.3891 0.0000
vt 0.2432 0.0000 0.0000
vt 0.2432 0.3891 0.0000
vt 0.8446 0.1651 0.0000
vt 0.8369 0.1464 0.0000
vt 0.8182 0.1387 0.0000
vt 0.7923 0.1662 0.0000
vt 0.8006 0.1460 0.0000
vt 0.7996 0.1837 0.0000
vt 0.8182 0.1914 0.0000
vt 0.8369 0.1837 0.0000
vt 0.7558 0.5957 0.0000
vt 0.7198 0.5089 0.0000
vt 0.7558 0.4221 0.0000
vt 0.9294 0.5957 0.0000
vt 0.8426 0.3861 0.0000
vt 0.9294 0.4221 0.0000
vt 0.9654 0.5089 0.0000
vt 0.8426 0.6316 0.0000
vt 0.0512 0.2886 0.0000
vt 0.6125 0.5456 0.0000
vt 0.4062 0.5745 0.0000
vt 0.4062 0.3861 0.0000
vt 0.6584 0.3861 0.0000
vt 0.3227 0.4062 0.0000
vt 0.3229 0.4746 0.0000
vt 0.0887 0.4825 0.0000
vt 0.0281 0.4846 0.0000
vt 0.0000 0.4855 0.0000
vt 0.0000 0.4062 0.0000
vt 0.1551 0.8044 0.0000
vt 0.1551 0.8315 0.0000
vt 0.0000 0.8315 0.0000
vt 0.0000 0.8044 0.0000
vt 0.4628 0.0000 0.0000
vt 0.4625 0.0662 0.0000
vt 0.4062 0.0643 0.0000
vt 0.4062 0.0000 0.0000
vt 0.8259 0.6998 0.0000
vt 0.8259 0.7219 0.0000
vt 0.7196 0.7219 0.0000
vt 0.7697 0.6998 0.0000
vt 0.7196 0.6998 0.0000
vt 0.4062 0.9960 0.0000
vt 0.4062 0.6998 0.0000
vt 0.4516 0.6998 0.0000
vt 0.4537 0.9960 0.0000
vt 0.7027 0.3861 0.0000
vt 0.7027 0.6826 0.0000
vt 0.6584 0.6826 0.0000
vt 0.3811 0.4062 0.0000
vt 0.3811 0.4726 0.0000
vt 0.7752 0.0000 0.0000
vt 0.7752 0.0768 0.0000
vt 0.3242 0.7873 0.0000
vt 0.0000 0.7873 0.0000
vt 0.0000 0.7149 0.0000
vt 0.0245 0.7149 0.0000
vt 0.0875 0.7149 0.0000
vt 0.3239 0.7149 0.0000
vt 0.1551 0.9595 0.0000
vt 0.0000 0.9595 0.0000
vt 0.0000 0.9301 0.0000
vt 0.1551 0.9301 0.0000
vt 0.4613 0.3690 0.0000
vt 0.4062 0.3690 0.0000
vt 0.4062 0.2989 0.0000
vt 0.4616 0.2989 0.0000
vt 0.7584 0.8060 0.0000
vt 0.7196 0.8060 0.0000
vt 0.7196 0.7858 0.0000
vt 0.8259 0.8060 0.0000
vt 0.8259 0.7858 0.0000
vt 0.3811 0.7873 0.0000
vt 0.3811 0.7149 0.0000
vt 0.7752 0.3690 0.0000
vt 0.7752 0.2989 0.0000
vt 0.1261 0.8551 0.0000
vt 0.1073 0.8315 0.0000
vt 0.1259 0.9100 0.0000
vt 0.1098 0.9301 0.0000
vt 0.3811 0.5146 0.0000
vt 0.3231 0.5146 0.0000
vt 0.0894 0.9301 0.0000
vt 0.0920 0.9301 0.0000
vt 0.0560 0.8315 0.0000
vt 0.0386 0.8315 0.0000
vt 0.0945 0.8315 0.0000
vt 0.5206 0.8672 0.0000
vt 0.5185 0.8672 0.0000
vt 0.7025 0.6998 0.0000
vt 0.7025 0.8564 0.0000
vt 0.4062 0.6826 0.0000
vt 0.7045 0.8564 0.0000
vt 0.7045 0.9960 0.0000
vt 0.3238 0.6958 0.0000
vt 0.3811 0.6958 0.0000
vt 0.2170 0.5146 0.0000
vt 0.0000 0.9217 0.0000
vt 0.0000 0.9223 0.0000
vt 0.3891 0.3103 0.0000
vt 0.3891 0.3891 0.0000
vt 0.0512 0.1878 0.0000
vt 0.0512 0.0000 0.0000
vt 0.2170 0.6958 0.0000
vt 0.0000 0.8488 0.0000
vt 0.0000 0.8485 0.0000
vt 0.0550 0.9301 0.0000
vt 0.0361 0.9301 0.0000
vt 0.0198 0.9095 0.0000
vt 0.0200 0.8546 0.0000
# 158 texture coords

g Cylinder001
usemtl UnwrapChecker
s 8
f 1/1/1 2/2/2 3/3/3 4/4/4 
f 4/4/4 3/3/3 5/5/5 
f 6/6/6 7/7/6 8/8/7 1/1/1 
f 1/1/1 8/8/7 2/2/2 
f 9/9/8 10/10/9 11/11/10 12/12/11 
f 13/13/11 9/9/8 12/12/11 
f 14/14/12 15/15/13 10/10/9 9/9/8 
f 16/16/14 17/17/14 18/18/15 14/14/12 
f 14/14/12 18/18/15 15/15/13 
f 4/4/4 5/5/5 19/19/16 20/20/17 
f 21/21/17 4/4/4 20/20/17 
s 1
f 22/22/18 23/23/18 24/24/18 25/25/18 
f 24/24/18 26/26/18 27/27/18 25/25/18 
f 27/27/18 28/28/18 25/25/18 
f 29/29/18 22/22/18 25/25/18 
s off
f 1/28/19 4/25/19 30/25/19 31/28/19 
f 4/25/20 21/29/20 32/29/20 30/25/20 
f 21/29/21 16/22/21 33/22/21 32/29/21 
f 16/22/22 14/23/22 34/23/22 33/22/22 
f 14/23/23 9/24/23 35/24/23 34/23/23 
f 9/24/24 13/26/24 36/26/24 35/24/24 
f 13/26/25 6/27/25 37/27/25 36/26/25 
f 6/27/26 1/28/26 31/28/26 37/27/26 
f 31/28/27 30/25/27 25/25/27 28/28/27 
f 30/25/28 32/29/28 29/29/28 25/25/28 
f 32/29/29 33/22/29 22/22/29 29/29/29 
f 33/22/30 34/23/30 23/23/30 22/22/30 
f 34/23/31 35/24/31 24/24/31 23/23/31 
f 35/24/32 36/26/32 26/26/32 24/24/32 
f 36/26/33 37/27/33 27/27/33 26/26/33 
f 37/27/34 31/28/34 28/28/34 27/27/34 
s 8
f 6/30/6 13/13/11 12/12/11 7/31/6 
f 16/16/14 21/21/17 20/20/17 17/17/14 
f 38/32/35 39/33/36 40/34/36 41/35/35 
f 39/33/36 42/36/37 43/37/37 40/34/36 
f 43/37/37 44/38/37 40/34/36 
f 45/39/38 46/40/39 47/41/40 48/42/41 
f 49/43/42 50/44/43 51/45/43 52/46/42 
f 50/44/43 53/47/44 54/48/44 51/45/43 
f 53/47/44 55/49/45 56/50/45 54/48/44 
f 55/49/45 38/32/35 41/35/35 56/50/45 
s 1
f 53/51/46 50/52/46 49/53/46 42/54/46 
f 49/53/46 57/55/46 42/54/46 
f 42/54/46 39/56/46 38/57/46 53/51/46 
f 55/58/46 53/51/46 38/57/46 
f 58/59/18 59/60/18 60/61/18 61/62/18 
f 60/61/18 62/63/18 63/64/18 61/62/18 
f 63/64/18 64/65/18 61/62/18 
f 65/66/18 58/59/18 61/62/18 
s off
f 41/66/47 40/59/47 66/59/47 67/66/47 
f 40/59/48 46/60/48 68/60/48 66/59/48 
f 46/60/49 45/61/49 69/61/49 68/60/49 
f 45/61/50 52/63/50 70/63/50 69/61/50 
f 52/63/51 51/64/51 71/64/51 70/63/51 
f 51/64/52 54/65/52 72/65/52 71/64/52 
f 54/65/53 56/62/53 73/62/53 72/65/53 
f 56/62/54 41/66/54 67/66/54 73/62/54 
f 67/66/55 66/59/55 74/59/55 75/66/55 
f 66/59/56 68/60/56 76/60/56 74/59/56 
f 68/60/57 69/61/57 77/61/57 76/60/57 
f 69/61/58 70/63/58 78/63/58 77/61/58 
f 70/63/59 71/64/59 79/64/59 78/63/59 
f 71/64/60 72/65/60 80/65/60 79/64/60 
f 72/65/61 73/62/61 81/62/61 80/65/61 
f 73/62/62 67/66/62 75/66/62 81/62/62 
f 75/66/63 74/59/63 58/59/63 65/66/63 
f 74/59/64 76/60/64 59/60/64 58/59/64 
f 76/60/65 77/61/65 60/61/65 59/60/65 
f 77/61/66 78/63/66 62/63/66 60/61/66 
f 78/63/67 79/64/67 63/64/67 62/63/67 
f 79/64/68 80/65/68 64/65/68 63/64/68 
f 80/65/69 81/62/69 61/62/69 64/65/69 
f 81/62/70 75/66/70 65/66/70 61/62/70 
s 8
f 82/67/71 52/46/42 45/39/38 48/42/41 
s 4
f 83/68/72 84/69/72 85/70/72 86/71/72 
s 32
f 87/72/73 88/73/73 89/74/74 90/75/73 
f 87/72/73 90/75/73 91/76/73 92/77/74 
s 16
f 93/78/18 94/79/18 95/80/18 96/81/18 
s 32
f 97/82/75 98/83/75 94/84/76 93/85/76 
s 64
f 92/86/77 91/87/77 99/88/77 100/89/46 
f 101/90/46 100/89/46 99/88/77 
s 2
f 93/91/78 96/92/78 87/93/78 97/94/78 
s 4
f 102/95/79 103/96/79 104/97/72 105/71/72 
s 32
f 96/98/73 95/99/73 88/73/73 87/72/73 
f 101/100/75 99/101/75 98/83/75 97/82/75 
f 105/102/73 106/103/74 107/104/74 108/105/74 
f 105/102/73 108/105/74 109/106/74 110/107/74 
s 16
f 103/108/18 102/109/18 111/110/18 112/111/18 
s 32
f 104/112/75 103/113/80 112/114/80 113/115/75 
s 64
f 114/116/81 115/117/81 116/118/81 106/119/81 
f 107/120/46 106/119/81 116/118/81 
s 32
f 102/121/74 105/102/73 110/107/74 111/122/74 
f 115/123/75 104/112/75 113/115/75 116/124/75 
f 108/105/74 107/104/74 91/76/73 90/75/73 
s 16
f 12/125/82 11/126/82 117/79/82 7/127/82 
f 7/127/82 117/79/82 118/111/83 8/128/82 
s 32
f 113/115/75 112/114/80 94/84/76 98/83/75 
s 64
f 119/120/84 120/118/46 121/88/46 122/87/84 
s 32
f 44/129/73 43/130/73 88/73/73 95/99/73 
f 123/124/76 124/115/75 125/83/75 126/101/76 
s off
f 116/124/85 113/115/85 127/115/85 128/124/85 
f 113/115/86 98/83/86 129/83/86 127/115/86 
f 98/83/87 99/101/87 130/101/87 129/83/87 
f 99/101/88 116/124/88 128/124/88 130/101/88 
f 128/124/89 127/115/89 124/115/89 123/124/89 
f 127/115/90 129/83/90 125/83/90 124/115/90 
f 129/83/91 130/101/91 126/101/91 125/83/91 
f 130/101/92 128/124/92 123/124/92 126/101/92 
f 131/110/93 3/131/93 2/132/93 111/110/93 
f 112/111/93 111/110/93 2/132/93 132/111/93 
f 95/80/94 94/79/94 133/79/94 134/80/94 
f 94/79/95 112/111/95 132/111/95 133/79/95 
f 2/132/96 8/128/96 118/111/96 132/111/96 
f 131/110/97 134/80/97 135/80/97 136/110/97 
f 15/133/98 18/134/98 135/80/98 134/80/98 
f 10/135/98 15/133/98 134/80/98 133/79/98 
f 10/135/98 133/79/98 117/79/98 11/126/98 
f 133/79/99 132/111/99 118/111/99 117/79/99 
s 2
f 97/94/78 87/93/78 137/136/78 
f 138/137/100 139/93/100 140/138/78 141/139/78 
s 4
f 142/68/72 104/97/72 115/140/72 114/69/72 
s off
f 92/138/101 100/141/101 141/139/101 140/138/101 
f 100/141/102 137/136/102 138/137/102 141/139/102 
f 137/136/103 87/93/103 139/93/103 138/137/103 
f 87/93/104 92/138/104 140/138/104 139/93/104 
f 106/70/105 105/71/105 86/71/105 85/70/105 
f 105/71/106 142/68/106 83/68/106 86/71/106 
f 142/68/107 114/69/107 84/69/107 83/68/107 
f 114/69/108 106/70/108 85/70/108 84/69/108 
f 91/87/109 107/120/109 143/120/109 144/87/109 
f 107/120/110 116/118/110 145/118/110 143/120/110 
f 116/118/111 99/88/111 146/88/111 145/118/111 
f 99/88/112 91/87/112 144/87/112 146/88/112 
f 144/87/109 143/120/109 119/120/109 122/87/109 
f 143/120/110 145/118/110 120/118/110 119/120/110 
f 145/118/111 146/88/111 121/88/111 120/118/111 
f 146/88/112 144/87/112 122/87/112 121/88/112 
s 8
f 147/75/74 148/74/74 149/106/74 150/105/74 
s off
f 90/75/113 89/74/113 151/74/113 152/75/113 
f 89/74/114 109/106/114 153/106/114 151/74/114 
f 109/106/115 108/105/115 154/105/115 153/106/115 
f 108/105/116 90/75/116 152/75/116 154/105/116 
f 152/75/117 151/74/117 155/74/117 156/75/117 
f 151/74/118 153/106/118 157/106/118 155/74/118 
f 153/106/119 154/105/119 158/105/119 157/106/119 
f 154/105/120 152/75/120 156/75/120 158/105/120 
f 156/75/121 155/74/121 159/74/121 160/75/121 
f 161/74/122 162/106/122 163/106/122 164/74/122 
f 157/106/119 158/105/119 165/105/119 166/106/119 
f 158/105/123 156/75/123 160/75/123 165/105/123 
f 160/75/124 159/74/124 167/74/124 168/75/124 
f 159/74/125 166/106/125 169/106/125 167/74/125 
f 166/106/126 165/105/126 170/105/126 169/106/126 
f 165/105/127 160/75/127 168/75/127 170/105/127 
f 168/75/128 167/74/128 148/74/128 147/75/128 
f 167/74/129 169/106/129 149/106/129 148/74/129 
f 169/106/130 170/105/130 150/105/130 149/106/130 
f 170/105/131 168/75/131 147/75/131 150/105/131 
f 157/106/132 171/106/132 172/74/132 155/74/132 
f 157/106/133 166/106/133 163/106/133 171/106/133 
f 163/106/133 162/106/133 171/106/133 
f 166/106/134 159/74/134 164/74/134 163/106/134 
f 159/74/135 155/74/135 172/74/135 161/74/135 
f 159/74/135 161/74/135 164/74/135 
f 173/106/132 174/106/132 175/74/132 176/74/132 
f 162/106/136 161/74/136 175/74/136 174/106/136 
f 161/74/137 172/74/137 176/74/137 175/74/137 
f 172/74/138 171/106/138 173/106/138 176/74/138 
f 171/106/139 162/106/139 174/106/139 173/106/139 
s 2
f 101/142/78 97/94/78 137/136/78 100/141/78 
s 4
f 142/68/72 105/71/72 104/97/72 
s 32
f 111/122/74 110/107/74 177/143/74 82/144/74 
f 89/74/74 88/73/73 43/130/73 42/145/73 
s off
f 48/146/140 131/110/140 111/110/140 82/147/140 
s 8
f 44/38/37 47/148/40 46/149/39 40/34/36 
f 177/150/71 57/151/71 49/43/42 52/46/42 
f 82/67/71 177/150/71 52/46/42 
s 32
f 109/106/74 89/74/74 42/145/73 57/152/74 
f 177/143/74 110/107/74 109/106/74 57/152/74 
s off
f 47/153/140 134/80/140 131/110/140 48/146/140 
f 44/154/141 95/80/141 134/80/141 47/153/141 
f 5/155/142 3/131/142 131/110/142 136/110/142 
f 5/155/143 136/110/143 19/156/143 
s 16
f 20/157/82 19/156/82 136/110/82 17/158/82 
f 17/158/82 136/110/82 135/80/82 18/134/82 
# 165 polygons - 20 triangles

